<?xml version="1.0" encoding="UTF-8" standalone="no"?>
<!DOCTYPE svg PUBLIC "-//W3C//DTD SVG 1.1//EN" "http://www.w3.org/Graphics/SVG/1.1/DTD/svg11.dtd">
<svg version="1.1" xmlns="http://www.w3.org/2000/svg" xmlns:xlink="http://www.w3.org/1999/xlink" preserveAspectRatio="xMidYMid meet" viewBox="125.82845269864865 8.935864813727378 37.17332990073422 200.00000000000006" width="37.17" height="200"><defs><path d="M135.59 208.94L135.59 208.78L135.38 208.75L134.95 208.67L134.52 208.57L134.1 208.45L133.68 208.3L133.27 208.14L132.87 207.95L132.48 207.75L132.09 207.52L131.71 207.28L131.34 207.02L130.98 206.74L130.63 206.44L130.28 206.13L129.95 205.8L129.63 205.45L129.32 205.09L129.02 204.71L128.73 204.32L128.45 203.91L128.18 203.5L127.93 203.06L127.69 202.62L127.46 202.16L127.24 201.69L127.04 201.21L126.86 200.72L126.68 200.21L126.53 199.7L126.38 199.18L126.26 198.64L126.14 198.1L126.05 197.55L125.97 197L125.91 196.43L125.86 195.86L125.84 195.28L125.83 194.7L125.83 23.02L125.84 22.43L125.86 21.86L125.91 21.28L125.97 20.72L126.05 20.16L126.14 19.62L126.26 19.07L126.38 18.54L126.53 18.02L126.68 17.51L126.86 17L127.04 16.51L127.24 16.03L127.46 15.56L127.69 15.1L127.93 14.66L128.18 14.22L128.45 13.8L128.73 13.4L129.02 13.01L129.32 12.63L129.63 12.27L129.95 11.92L130.28 11.59L130.63 11.28L130.98 10.98L131.34 10.7L131.71 10.44L132.09 10.2L132.48 9.97L132.87 9.77L133.27 9.58L133.68 9.42L134.1 9.27L134.52 9.15L134.95 9.04L135.38 8.96L135.59 8.94L135.59 8.94L163 8.94L163 208.94L135.59 208.94Z" id="bwu1rG0Xk"></path><path d="M149.34 97.6C148.91 97.6 148.56 97.95 148.56 98.39C148.56 98.78 148.56 101.97 148.56 102.37C148.56 102.8 148.91 103.16 149.34 103.16C149.4 103.16 149.7 103.16 150.24 103.16L150.24 106.59L145.62 108.76L145.62 96.66C146.74 96.66 147.36 96.66 147.49 96.66C147.78 96.66 148.05 96.49 148.19 96.23C148.32 95.96 148.3 95.65 148.12 95.41C147.81 94.99 145.36 91.6 145.05 91.18C144.9 90.98 144.67 90.86 144.42 90.86C144.16 90.86 143.93 90.98 143.78 91.18C143.47 91.6 141.02 94.99 140.71 95.41C140.53 95.65 140.51 95.96 140.64 96.23C140.78 96.49 141.05 96.66 141.35 96.66C141.47 96.66 142.09 96.66 143.21 96.66L143.21 111.2L138.6 109.03C138.6 106.61 138.6 105.26 138.6 104.99C139.58 104.53 140.27 103.53 140.27 102.37C140.27 100.78 138.98 99.49 137.39 99.49C135.8 99.49 134.51 100.78 134.51 102.37C134.51 103.53 135.19 104.53 136.18 104.99C136.18 105.47 136.18 109.32 136.18 109.8C136.18 110.27 136.45 110.69 136.88 110.89C137.3 111.09 139.41 112.08 143.21 113.86C143.21 116.7 143.21 118.27 143.21 118.59C141.42 119.11 140.11 120.76 140.11 122.71C140.11 125.08 142.04 127.01 144.42 127.01C146.79 127.01 148.72 125.08 148.72 122.71C148.72 120.76 147.41 119.11 145.62 118.59C145.62 118.11 145.62 115.72 145.62 111.42C149.42 109.64 151.53 108.65 151.95 108.45C152.38 108.25 152.65 107.82 152.65 107.36C152.65 107.08 152.65 105.68 152.65 103.16C153.18 103.16 153.48 103.16 153.54 103.16C153.97 103.16 154.32 102.8 154.32 102.37C154.32 101.97 154.32 98.78 154.32 98.39C154.32 97.95 153.97 97.6 153.54 97.6C152.7 97.6 149.76 97.6 149.34 97.6Z" id="fgWz17rd"></path><path d="" id="aIQXCaOx"></path><path d="" id="a4NGCtKiua"></path></defs><g><g><g><use xlink:href="#bwu1rG0Xk" opacity="1" fill="#880011" fill-opacity="1"></use></g><g><use xlink:href="#fgWz17rd" opacity="1" fill="#ffffff" fill-opacity="1"></use><g><use xlink:href="#fgWz17rd" opacity="1" fill-opacity="0" stroke="#000000" stroke-width="1" stroke-opacity="0"></use></g></g><g><g><use xlink:href="#aIQXCaOx" opacity="1" fill-opacity="0" stroke="#000000" stroke-width="1" stroke-opacity="1"></use></g></g><g><g><use xlink:href="#a4NGCtKiua" opacity="1" fill-opacity="0" stroke="#000000" stroke-width="1" stroke-opacity="1"></use></g></g></g></g></svg>