<?xml version="1.0" encoding="UTF-8" standalone="no"?>
<!DOCTYPE svg PUBLIC "-//W3C//DTD SVG 1.1//EN" "http://www.w3.org/Graphics/SVG/1.1/DTD/svg11.dtd">
<svg version="1.1" xmlns="http://www.w3.org/2000/svg" xmlns:xlink="http://www.w3.org/1999/xlink" preserveAspectRatio="xMidYMid meet" viewBox="0 0 640 640" width="640" height="640"><defs><path d="M616.18 310C616.18 467.95 487.95 596.18 330 596.18C172.05 596.18 43.82 467.95 43.82 310C43.82 152.05 172.05 23.82 330 23.82C487.95 23.82 616.18 152.05 616.18 310Z" id="bodb6JrTq"></path><path d="M392.29 166.71C386.8 166.71 382.35 171.16 382.35 176.65C382.35 181.69 382.35 221.98 382.35 227.02C382.35 232.51 386.8 236.96 392.29 236.96C393.04 236.96 396.8 236.96 403.56 236.96L403.56 280.36L345.24 307.73L345.24 154.81C359.38 154.81 367.23 154.81 368.8 154.81C372.54 154.81 375.96 152.72 377.66 149.39C379.36 146.05 379.04 142.05 376.84 139.03C372.96 133.69 341.92 90.96 338.04 85.61C336.17 83.04 333.18 81.52 330 81.52C326.82 81.52 323.83 83.04 321.96 85.61C318.08 90.96 287.04 133.69 283.16 139.03C280.96 142.05 280.64 146.06 282.34 149.39C284.04 152.72 287.46 154.81 291.2 154.81C292.77 154.81 300.62 154.81 314.76 154.81L314.76 338.6L256.44 311.23C256.44 280.56 256.44 263.52 256.44 260.11C268.95 254.33 277.65 241.68 277.65 227.02C277.65 206.92 261.3 190.57 241.2 190.57C221.1 190.57 204.75 206.92 204.75 227.02C204.75 241.68 213.46 254.33 225.96 260.11C225.96 266.19 225.96 314.83 225.96 320.91C225.96 326.82 229.38 332.2 234.73 334.71C240.06 337.22 266.74 349.74 314.76 372.28C314.76 408.09 314.76 427.98 314.76 431.96C292.19 438.57 275.64 459.45 275.64 484.13C275.64 514.1 300.03 538.48 330 538.48C359.97 538.48 384.36 514.1 384.36 484.13C384.36 459.45 367.82 438.57 345.24 431.96C345.24 425.92 345.24 395.74 345.24 341.4C393.26 318.86 419.94 306.34 425.27 303.84C430.62 301.33 434.04 295.95 434.04 290.04C434.04 286.5 434.04 268.81 434.04 236.96C440.8 236.96 444.55 236.96 445.31 236.96C450.79 236.96 455.25 232.51 455.25 227.02C455.25 221.98 455.25 181.69 455.25 176.66C455.25 171.16 450.79 166.71 445.31 166.71C434.7 166.71 397.59 166.71 392.29 166.71Z" id="d1jCjImiYD"></path></defs><g><g><g><use xlink:href="#bodb6JrTq" opacity="1" fill="#72c86f" fill-opacity="1"></use></g><g><use xlink:href="#d1jCjImiYD" opacity="1" fill="#ffffff" fill-opacity="1"></use><g><use xlink:href="#d1jCjImiYD" opacity="1" fill-opacity="0" stroke="#000000" stroke-width="1" stroke-opacity="0"></use></g></g></g></g></svg>