<?xml version="1.0" encoding="UTF-8" standalone="no"?>
<!DOCTYPE svg PUBLIC "-//W3C//DTD SVG 1.1//EN" "http://www.w3.org/Graphics/SVG/1.1/DTD/svg11.dtd">
<svg version="1.1" xmlns="http://www.w3.org/2000/svg" xmlns:xlink="http://www.w3.org/1999/xlink" preserveAspectRatio="xMidYMid meet" viewBox="0 0 640 640" width="640" height="640"><defs><path d="M564.94 320C564.94 455.19 455.19 564.94 320 564.94C184.81 564.94 75.06 455.19 75.06 320C75.06 184.81 184.81 75.06 320 75.06C455.19 75.06 564.94 184.81 564.94 320Z" id="cOAI0oEh4"></path><path d="M411.27 184.1L411.46 184.12L411.65 184.15L411.83 184.18L412.02 184.22L412.19 184.27L412.37 184.33L412.54 184.39L412.71 184.46L412.88 184.53L413.04 184.61L413.2 184.7L413.36 184.79L413.51 184.89L413.66 184.99L413.8 185.1L413.94 185.22L414.08 185.34L414.21 185.46L414.33 185.59L414.45 185.73L414.57 185.87L414.68 186.01L414.78 186.16L414.88 186.31L414.97 186.47L415.06 186.63L415.14 186.79L415.22 186.96L415.28 187.13L415.35 187.3L415.4 187.47L415.45 187.65L415.49 187.84L415.52 188.02L415.55 188.21L415.57 188.39L415.58 188.58L415.59 188.78L415.59 210.9L415.58 211.09L415.57 211.28L415.55 211.47L415.52 211.66L415.49 211.84L415.45 212.02L415.4 212.2L415.35 212.38L415.28 212.55L415.22 212.72L415.14 212.89L415.06 213.05L414.97 213.21L414.88 213.37L414.78 213.52L414.68 213.67L414.57 213.81L414.45 213.95L414.33 214.08L414.21 214.21L414.08 214.34L413.94 214.46L413.8 214.57L413.66 214.68L413.51 214.79L413.36 214.89L413.2 214.98L413.04 215.07L412.88 215.15L412.71 215.22L412.54 215.29L412.37 215.35L412.19 215.41L412.02 215.46L411.83 215.5L411.65 215.53L411.46 215.56L411.27 215.58L411.08 215.59L410.89 215.59L405.25 215.59L405.25 256.83L405.23 258.31L405.16 259.75L405.06 261.14L404.91 262.49L404.73 263.8L404.51 265.07L404.26 266.3L403.98 267.49L403.66 268.64L403.32 269.75L402.95 270.83L402.56 271.86L402.14 272.86L401.7 273.83L401.24 274.76L400.76 275.66L400.26 276.52L399.76 277.35L399.23 278.15L398.7 278.92L398.16 279.65L397.61 280.36L397.05 281.04L396.49 281.68L395.92 282.3L395.36 282.89L394.8 283.46L394.24 284L393.68 284.51L393.13 285L392.59 285.46L392.06 285.9L391.54 286.31L391.03 286.71L390.53 287.08L390.06 287.43L389.6 287.76L389.16 288.07L388.75 288.36L388.36 288.64L388.01 288.88L387.56 289.17L387.03 289.52L386.41 289.92L385.7 290.37L384.92 290.86L384.06 291.4L383.14 291.97L382.15 292.59L381.09 293.24L379.98 293.92L378.82 294.64L377.61 295.38L376.36 296.15L375.06 296.94L373.73 297.75L372.37 298.59L370.98 299.43L369.57 300.29L368.13 301.16L366.69 302.04L365.23 302.92L363.77 303.81L362.31 304.69L360.85 305.58L359.4 306.45L357.95 307.33L356.53 308.19L355.12 309.04L353.74 309.87L352.38 310.69L351.06 311.49L349.77 312.26L348.52 313.01L347.32 313.74L346.17 314.43L345.08 315.09L344.04 315.72L343.06 316.3L342.15 316.85L342.15 328.91L388.54 357.18L389.33 357.67L390.11 358.15L390.87 358.62L391.6 359.09L392.32 359.57L393.03 360.04L393.71 360.52L394.38 361L395.03 361.48L395.65 361.98L396.27 362.48L396.86 362.99L397.43 363.52L397.98 364.06L398.52 364.61L399.03 365.18L399.53 365.77L400 366.38L400.46 367.01L400.9 367.67L401.31 368.35L401.71 369.06L402.09 369.79L402.44 370.56L402.78 371.35L403.09 372.18L403.38 373.05L403.66 373.95L403.91 374.88L404.14 375.86L404.35 376.88L404.54 377.94L404.7 379.04L404.85 380.19L404.97 381.39L405.07 382.64L405.15 383.94L405.2 385.28L405.24 386.69L405.25 388.15L405.25 424.41L410.89 424.41L411.08 424.41L411.27 424.42L411.46 424.44L411.65 424.47L411.83 424.5L412.02 424.54L412.19 424.59L412.37 424.65L412.54 424.71L412.71 424.78L412.88 424.85L413.04 424.93L413.2 425.02L413.36 425.11L413.51 425.21L413.66 425.31L413.8 425.42L413.94 425.54L414.08 425.66L414.21 425.78L414.33 425.91L414.45 426.05L414.57 426.19L414.68 426.33L414.78 426.48L414.88 426.63L414.97 426.79L415.06 426.95L415.14 427.11L415.22 427.28L415.28 427.45L415.35 427.62L415.4 427.8L415.45 427.97L415.49 428.16L415.52 428.34L415.55 428.53L415.57 428.72L415.58 428.91L415.59 429.1L415.59 451.22L415.58 451.41L415.57 451.6L415.55 451.79L415.52 451.98L415.49 452.16L415.45 452.34L415.4 452.52L415.35 452.7L415.28 452.87L415.22 453.04L415.14 453.21L415.06 453.37L414.97 453.53L414.88 453.69L414.78 453.84L414.68 453.99L414.57 454.13L414.45 454.27L414.33 454.4L414.21 454.53L414.08 454.66L413.94 454.78L413.8 454.9L413.66 455L413.51 455.11L413.36 455.21L413.2 455.3L413.04 455.39L412.88 455.47L412.71 455.54L412.54 455.61L412.37 455.67L412.19 455.73L412.02 455.78L411.83 455.82L411.65 455.85L411.46 455.88L411.27 455.9L411.08 455.91L410.89 455.91L229.11 455.91L228.91 455.91L228.72 455.9L228.53 455.88L228.35 455.85L228.16 455.82L227.98 455.78L227.8 455.73L227.63 455.67L227.45 455.61L227.28 455.54L227.12 455.47L226.95 455.39L226.79 455.3L226.64 455.21L226.49 455.11L226.34 455L226.2 454.9L226.06 454.78L225.92 454.66L225.79 454.53L225.67 454.4L225.55 454.27L225.43 454.13L225.32 453.99L225.22 453.84L225.12 453.69L225.03 453.53L224.94 453.37L224.86 453.21L224.78 453.04L224.72 452.87L224.65 452.7L224.6 452.52L224.55 452.34L224.51 452.16L224.48 451.98L224.45 451.79L224.43 451.6L224.42 451.41L224.41 451.22L224.41 429.1L224.42 428.91L224.43 428.72L224.45 428.53L224.48 428.34L224.51 428.16L224.55 427.97L224.6 427.8L224.65 427.62L224.72 427.45L224.78 427.28L224.86 427.11L224.94 426.95L225.03 426.79L225.12 426.63L225.22 426.48L225.32 426.33L225.43 426.19L225.55 426.05L225.67 425.91L225.79 425.78L225.92 425.66L226.06 425.54L226.2 425.42L226.34 425.31L226.49 425.21L226.64 425.11L226.79 425.02L226.95 424.93L227.12 424.85L227.28 424.78L227.45 424.71L227.63 424.65L227.8 424.59L227.98 424.54L228.16 424.5L228.35 424.47L228.53 424.44L228.72 424.42L228.91 424.41L229.11 424.41L234.75 424.41L234.75 388.9L234.77 387.42L234.84 385.98L234.94 384.59L235.09 383.24L235.27 381.93L235.49 380.66L235.74 379.43L236.02 378.24L236.33 377.09L236.68 375.98L237.05 374.9L237.44 373.87L237.86 372.86L238.3 371.9L238.76 370.97L239.24 370.07L239.73 369.21L240.24 368.38L240.76 367.58L241.3 366.81L241.84 366.08L242.39 365.37L242.95 364.69L243.51 364.05L244.07 363.43L244.64 362.84L245.2 362.27L245.76 361.73L246.32 361.22L246.87 360.74L247.41 360.27L247.94 359.83L248.46 359.42L248.97 359.02L249.46 358.65L249.94 358.3L250.39 357.97L250.83 357.66L251.24 357.37L251.64 357.09L251.98 356.86L252.43 356.56L252.96 356.21L253.59 355.81L254.29 355.37L255.07 354.87L255.93 354.34L256.86 353.76L257.85 353.14L258.9 352.49L260.01 351.81L261.17 351.09L262.39 350.35L263.64 349.58L264.94 348.79L266.27 347.98L267.63 347.15L269.02 346.3L270.43 345.44L271.86 344.57L273.31 343.69L274.76 342.81L276.22 341.93L277.69 341.04L279.15 340.16L280.6 339.28L282.04 338.4L283.47 337.54L284.88 336.69L286.26 335.86L287.62 335.04L288.94 334.24L290.23 333.47L291.47 332.72L292.67 331.99L293.83 331.3L294.92 330.64L295.96 330.01L296.94 329.42L297.85 328.88L297.85 316.82L251.45 288.55L250.66 288.06L249.89 287.58L249.13 287.11L248.39 286.63L247.67 286.16L246.97 285.69L246.28 285.21L245.62 284.73L244.97 284.25L244.34 283.75L243.73 283.25L243.14 282.74L242.57 282.21L242.01 281.67L241.48 281.12L240.96 280.55L240.47 279.96L239.99 279.35L239.54 278.71L239.1 278.06L238.68 277.38L238.29 276.67L237.91 275.94L237.56 275.17L237.22 274.38L236.91 273.55L236.61 272.68L236.34 271.78L236.09 270.85L235.86 269.87L235.65 268.85L235.46 267.79L235.3 266.68L235.15 265.53L235.03 264.34L234.93 263.09L234.85 261.79L234.79 260.44L234.76 259.04L234.75 257.58L234.75 215.59L229.1 215.59L228.91 215.59L228.72 215.58L228.53 215.56L228.35 215.53L228.16 215.5L227.98 215.46L227.8 215.41L227.63 215.35L227.45 215.29L227.28 215.22L227.12 215.15L226.95 215.07L226.79 214.98L226.64 214.89L226.49 214.79L226.34 214.68L226.19 214.57L226.06 214.46L225.92 214.34L225.79 214.21L225.67 214.08L225.55 213.95L225.43 213.81L225.32 213.67L225.22 213.52L225.12 213.37L225.03 213.21L224.94 213.05L224.86 212.89L224.78 212.72L224.72 212.55L224.65 212.38L224.6 212.2L224.55 212.02L224.51 211.84L224.48 211.66L224.45 211.47L224.43 211.28L224.42 211.09L224.41 210.9L224.41 188.78L224.42 188.58L224.43 188.39L224.45 188.21L224.48 188.02L224.51 187.84L224.55 187.65L224.6 187.47L224.65 187.3L224.72 187.13L224.78 186.96L224.86 186.79L224.94 186.63L225.03 186.47L225.12 186.31L225.22 186.16L225.32 186.01L225.43 185.87L225.55 185.73L225.67 185.59L225.79 185.46L225.92 185.34L226.06 185.22L226.19 185.1L226.34 184.99L226.49 184.89L226.64 184.79L226.79 184.7L226.95 184.61L227.12 184.53L227.28 184.46L227.45 184.39L227.63 184.33L227.8 184.27L227.98 184.22L228.16 184.18L228.35 184.15L228.53 184.12L228.72 184.1L228.91 184.09L229.1 184.09L410.89 184.09L411.08 184.09L411.27 184.1ZM251.64 257.58L251.64 258.01L251.65 258.44L251.65 258.86L251.66 259.27L251.67 259.67L251.68 260.06L251.69 260.45L251.71 260.83L251.73 261.2L251.75 261.56L251.77 261.91L251.79 262.26L251.82 262.6L251.85 262.93L251.88 263.26L251.91 263.57L251.95 263.88L251.98 264.18L252.02 264.48L252.06 264.77L252.11 265.04L252.15 265.32L252.2 265.58L252.25 265.84L252.3 266.08L252.36 266.33L252.41 266.56L252.47 266.79L252.53 267.01L252.6 267.22L252.66 267.42L252.73 267.62L252.8 267.81L252.87 267.99L252.95 268.17L253.02 268.34L253.1 268.5L253.18 268.65L253.26 268.8L253.35 268.94L253.42 269.05L253.5 269.17L253.58 269.28L253.67 269.39L253.76 269.5L253.86 269.61L253.96 269.72L254.06 269.83L254.17 269.94L254.28 270.06L254.4 270.17L254.53 270.28L254.66 270.39L254.79 270.51L254.93 270.62L255.07 270.74L255.22 270.85L255.38 270.97L255.54 271.09L255.7 271.21L255.87 271.33L256.05 271.46L256.23 271.58L256.42 271.71L256.61 271.84L256.81 271.97L257.01 272.11L257.22 272.24L257.44 272.38L257.66 272.53L257.89 272.67L258.13 272.82L258.37 272.97L258.62 273.12L258.87 273.28L259.13 273.44L259.4 273.6L259.67 273.77L259.95 273.94L260.24 274.12L310.69 304.86L310.88 304.98L311.06 305.1L311.24 305.22L311.42 305.35L311.59 305.49L311.76 305.63L311.92 305.77L312.08 305.92L312.24 306.07L312.39 306.22L312.54 306.38L312.68 306.54L312.82 306.7L312.95 306.87L313.08 307.04L313.21 307.21L313.33 307.39L313.45 307.57L313.56 307.75L313.66 307.94L313.77 308.12L313.86 308.31L313.96 308.51L314.04 308.7L314.13 308.9L314.21 309.1L314.28 309.3L314.35 309.5L314.41 309.71L314.47 309.92L314.52 310.13L314.57 310.34L314.61 310.55L314.64 310.76L314.67 310.98L314.7 311.2L314.72 311.41L314.73 311.63L314.74 311.85L314.75 312.07L314.75 333.65L314.74 333.88L314.73 334.1L314.72 334.32L314.7 334.54L314.67 334.76L314.64 334.97L314.61 335.19L314.56 335.4L314.52 335.62L314.46 335.83L314.4 336.03L314.34 336.24L314.27 336.45L314.2 336.65L314.12 336.85L314.04 337.05L313.95 337.25L313.85 337.44L313.75 337.63L313.65 337.82L313.54 338.01L313.43 338.19L313.31 338.37L313.19 338.55L313.06 338.72L312.93 338.89L312.79 339.06L312.65 339.22L312.51 339.39L312.36 339.54L312.21 339.7L312.05 339.85L311.89 339.99L311.72 340.14L311.55 340.27L311.38 340.41L311.2 340.54L311.02 340.66L310.84 340.78L310.65 340.9L309.27 341.73L307.86 342.57L306.42 343.44L304.96 344.32L303.47 345.22L301.95 346.13L300.42 347.05L298.88 347.98L297.32 348.92L295.76 349.87L294.19 350.81L292.61 351.76L291.05 352.71L289.48 353.65L287.93 354.59L286.38 355.53L284.85 356.46L283.34 357.37L281.85 358.27L280.39 359.16L278.95 360.04L277.55 360.89L276.17 361.73L274.84 362.54L273.55 363.33L272.3 364.09L271.1 364.83L269.95 365.53L268.85 366.2L267.82 366.84L266.84 367.45L265.92 368.01L265.08 368.54L264.3 369.02L263.6 369.46L262.97 369.86L262.43 370.21L261.97 370.51L261.59 370.75L261.31 370.95L261 371.16L260.68 371.38L260.37 371.61L260.04 371.84L259.72 372.08L259.39 372.32L259.06 372.57L258.73 372.83L258.4 373.1L258.08 373.38L257.75 373.66L257.42 373.96L257.1 374.27L256.77 374.59L256.46 374.92L256.14 375.27L255.83 375.63L255.53 376L255.23 376.38L254.94 376.79L254.66 377.2L254.39 377.64L254.12 378.09L253.87 378.56L253.62 379.04L253.39 379.55L253.17 380.07L252.96 380.62L252.76 381.18L252.58 381.77L252.41 382.37L252.26 383L252.12 383.65L252 384.33L251.89 385.03L251.8 385.75L251.73 386.5L251.68 387.27L251.65 388.07L251.64 388.9L251.64 424.41L388.35 424.41L388.35 388.15L388.35 387.71L388.35 387.29L388.34 386.87L388.33 386.46L388.32 386.06L388.31 385.67L388.3 385.28L388.28 384.9L388.27 384.53L388.25 384.17L388.22 383.81L388.2 383.47L388.17 383.13L388.14 382.79L388.11 382.47L388.08 382.15L388.05 381.84L388.01 381.54L387.97 381.25L387.93 380.96L387.89 380.68L387.84 380.41L387.79 380.15L387.74 379.89L387.69 379.64L387.64 379.4L387.58 379.17L387.52 378.94L387.46 378.72L387.4 378.51L387.33 378.3L387.27 378.11L387.2 377.92L387.12 377.73L387.05 377.56L386.97 377.39L386.9 377.23L386.82 377.07L386.73 376.93L386.65 376.79L386.57 376.67L386.5 376.56L386.41 376.45L386.33 376.34L386.24 376.23L386.14 376.12L386.04 376.01L385.94 375.9L385.83 375.78L385.71 375.67L385.59 375.56L385.47 375.45L385.34 375.34L385.21 375.22L385.07 375.11L384.93 374.99L384.78 374.88L384.62 374.76L384.46 374.64L384.3 374.52L384.13 374.4L383.95 374.27L383.77 374.15L383.58 374.02L383.39 373.89L383.19 373.76L382.98 373.62L382.77 373.49L382.55 373.35L382.33 373.21L382.1 373.06L381.87 372.91L381.63 372.76L381.38 372.61L381.12 372.45L380.86 372.29L380.59 372.13L380.32 371.96L380.04 371.79L379.75 371.61L329.3 340.87L329.12 340.76L328.93 340.63L328.75 340.51L328.58 340.38L328.41 340.24L328.24 340.1L328.07 339.96L327.91 339.82L327.76 339.67L327.61 339.51L327.46 339.35L327.32 339.19L327.18 339.03L327.04 338.86L326.91 338.69L326.79 338.52L326.67 338.34L326.55 338.16L326.44 337.98L326.33 337.79L326.23 337.61L326.13 337.42L326.04 337.22L325.95 337.03L325.87 336.83L325.79 336.63L325.72 336.43L325.65 336.22L325.58 336.02L325.53 335.81L325.47 335.6L325.43 335.39L325.38 335.18L325.35 334.96L325.32 334.75L325.29 334.53L325.27 334.32L325.26 334.1L325.25 333.88L325.25 333.66L325.25 312.07L325.25 311.85L325.26 311.63L325.27 311.41L325.29 311.19L325.32 310.97L325.35 310.76L325.39 310.54L325.43 310.33L325.48 310.11L325.53 309.9L325.59 309.7L325.65 309.49L325.72 309.28L325.79 309.08L325.87 308.88L325.96 308.68L326.05 308.49L326.14 308.29L326.24 308.1L326.34 307.91L326.45 307.73L326.56 307.54L326.68 307.36L326.8 307.19L326.93 307.01L327.06 306.84L327.2 306.67L327.34 306.51L327.48 306.35L327.63 306.19L327.79 306.04L327.94 305.89L328.1 305.74L328.27 305.6L328.44 305.46L328.61 305.32L328.79 305.19L328.97 305.07L329.16 304.95L329.35 304.83L330.72 304.01L332.13 303.16L333.57 302.29L335.04 301.41L336.53 300.51L338.04 299.6L339.57 298.68L341.12 297.75L342.68 296.81L344.24 295.87L345.81 294.92L347.38 293.97L348.95 293.02L350.51 292.08L352.07 291.14L353.61 290.2L355.14 289.28L356.65 288.36L358.14 287.46L359.61 286.57L361.04 285.7L362.45 284.84L363.82 284.01L365.15 283.19L366.45 282.4L367.69 281.64L368.9 280.91L370.05 280.2L371.14 279.53L372.18 278.89L373.16 278.28L374.07 277.72L374.92 277.19L375.69 276.71L376.4 276.27L377.02 275.87L377.57 275.52L378.03 275.22L378.4 274.98L378.69 274.78L379 274.57L379.31 274.35L379.63 274.12L379.95 273.89L380.27 273.65L380.6 273.41L380.93 273.16L381.26 272.9L381.59 272.63L381.92 272.35L382.25 272.07L382.57 271.77L382.9 271.46L383.22 271.14L383.54 270.81L383.85 270.46L384.16 270.1L384.46 269.73L384.76 269.35L385.05 268.94L385.33 268.53L385.6 268.09L385.87 267.64L386.12 267.17L386.37 266.69L386.6 266.18L386.82 265.66L387.03 265.11L387.23 264.55L387.41 263.97L387.58 263.36L387.74 262.73L387.87 262.08L388 261.4L388.1 260.71L388.19 259.98L388.26 259.23L388.31 258.46L388.34 257.66L388.35 256.83L388.35 215.59L251.64 215.59L251.64 257.58Z" id="cdqIaoPvA"></path><path d="M262.38 391.72C262.38 393.63 262.38 412.06 262.38 412.06C262.38 412.06 262.16 414.05 264.4 414.05C265.48 414.05 292.45 414.08 320 414.11C347.55 414.08 374.52 414.05 375.6 414.05C377.84 414.05 377.62 412.06 377.62 412.06C377.62 412.06 377.62 393.63 377.62 391.72C377.62 389.81 377.03 389.27 375.97 388.47C368.41 382.82 334.8 356.3 320 356.3C305.2 356.3 271.59 382.82 264.03 388.47C262.96 389.27 262.38 389.81 262.38 391.72Z" id="amo0iDfgM"></path></defs><g><g><g><g><use xlink:href="#cOAI0oEh4" opacity="1" fill="#428bca" fill-opacity="1"></use></g><g><use xlink:href="#cdqIaoPvA" opacity="1" fill="#ffffff" fill-opacity="1"></use><g><use xlink:href="#cdqIaoPvA" opacity="1" fill-opacity="0" stroke="#000000" stroke-width="1" stroke-opacity="0"></use></g></g><g><use xlink:href="#amo0iDfgM" opacity="1" fill="#ffffff" fill-opacity="1"></use><g><use xlink:href="#amo0iDfgM" opacity="1" fill-opacity="0" stroke="#000000" stroke-width="1" stroke-opacity="0"></use></g></g></g></g></g></svg>