<?xml version="1.0" encoding="UTF-8" standalone="no"?>
<!DOCTYPE svg PUBLIC "-//W3C//DTD SVG 1.1//EN" "http://www.w3.org/Graphics/SVG/1.1/DTD/svg11.dtd">
<svg version="1.1" xmlns="http://www.w3.org/2000/svg" xmlns:xlink="http://www.w3.org/1999/xlink" preserveAspectRatio="xMidYMid meet" viewBox="0 0 640 640" width="640" height="640"><defs><path d="M501.66 320C501.66 420.26 420.26 501.66 320 501.66C219.74 501.66 138.34 420.26 138.34 320C138.34 219.74 219.74 138.34 320 138.34C420.26 138.34 501.66 219.74 501.66 320Z" id="a7H14P1AoN"></path><path d="M320 200.12C321.32 200.12 322.25 200.68 322.81 201.79C324.81 205.12 340.79 231.76 342.79 235.09C343.14 235.64 343.31 236.2 343.31 236.75C343.31 237.38 343.17 237.93 342.89 238.42C342.2 239.53 341.23 240.08 339.98 240.08C339.09 240.08 334.65 240.08 326.66 240.08C326.66 293.65 326.66 323.41 326.66 329.37C330.68 326.8 336.41 323.92 343.83 320.73C346.4 319.62 348.3 318.77 349.55 318.18C350.8 317.59 352.5 316.76 354.65 315.68C356.8 314.61 358.43 313.67 359.54 312.87C360.65 312.07 361.83 311.14 363.08 310.06C364.33 308.99 365.23 307.89 365.79 306.79C366.34 305.68 366.62 304.53 366.62 303.35C366.62 302.68 366.62 299.35 366.62 293.36C360.62 293.36 357.29 293.36 356.63 293.36C355.66 293.36 354.86 293.05 354.23 292.42C353.61 291.8 353.3 291 353.3 290.03C353.3 286.7 353.3 260.06 353.3 256.73C353.3 255.76 353.61 254.96 354.23 254.34C354.86 253.71 355.66 253.4 356.63 253.4C359.96 253.4 386.6 253.4 389.93 253.4C390.9 253.4 391.7 253.71 392.32 254.34C392.95 254.96 393.26 255.76 393.26 256.73C393.26 260.06 393.26 286.7 393.26 290.03C393.26 291 392.95 291.8 392.32 292.42C391.7 293.05 390.9 293.36 389.93 293.36C389.26 293.36 385.93 293.36 379.94 293.36C379.94 299.35 379.94 302.68 379.94 303.35C379.94 305.57 379.59 307.68 378.9 309.7C378.21 311.71 377.39 313.48 376.45 315.01C375.51 316.53 374.11 318.09 372.24 319.69C370.36 321.28 368.77 322.57 367.45 323.54C366.13 324.51 364.16 325.67 361.52 327.02C358.88 328.38 356.89 329.37 355.54 329.99C354.18 330.61 352.08 331.59 349.24 332.9C345.56 334.5 342.74 335.78 340.76 336.75C338.78 337.72 336.53 338.97 334 340.5C331.46 342.03 329.61 343.57 328.43 345.13C327.25 346.69 326.66 348.3 326.66 349.97C326.66 353.72 326.66 383.68 326.66 387.43C332.49 388.96 337.27 392.11 341.02 396.9C344.77 401.69 346.64 407.13 346.64 413.24C346.64 420.59 344.04 426.87 338.83 432.07C333.63 437.28 327.35 439.88 320 439.88C312.65 439.88 306.37 437.28 301.16 432.07C295.96 426.87 293.36 420.59 293.36 413.24C293.36 407.13 295.23 401.69 298.98 396.9C302.73 392.11 307.51 388.96 313.34 387.43C313.34 386.35 313.34 377.69 313.34 376.61C313.34 374.94 312.75 373.33 311.57 371.77C310.39 370.21 308.54 368.67 306 367.14C303.47 365.61 301.22 364.36 299.24 363.39C297.26 362.42 294.44 361.14 290.76 359.54C287.92 358.22 285.82 357.25 284.46 356.63C283.11 356 281.12 355.02 278.48 353.66C275.84 352.31 273.87 351.15 272.55 350.18C271.23 349.2 269.64 347.92 267.76 346.33C265.89 344.73 264.48 343.17 263.55 341.64C262.61 340.12 261.8 338.35 261.1 336.34C260.41 334.32 260.06 332.21 260.06 329.99C260.06 328.88 260.06 319.97 260.06 318.85C256.11 317.4 252.9 314.97 250.44 311.57C247.97 308.17 246.74 304.32 246.74 300.02C246.74 294.47 248.69 289.75 252.57 285.87C256.45 281.99 261.17 280.04 266.72 280.04C272.27 280.04 276.99 281.99 280.87 285.87C284.76 289.75 286.7 294.47 286.7 300.02C286.7 304.32 285.47 308.17 283.01 311.57C280.54 314.97 277.34 317.4 273.38 318.85C273.38 319.97 273.38 328.88 273.38 329.99C273.38 331.17 273.66 332.31 274.21 333.42C274.77 334.53 275.67 335.62 276.92 336.7C278.17 337.78 279.35 338.71 280.46 339.51C281.57 340.31 283.2 341.25 285.35 342.32C287.5 343.4 289.2 344.23 290.45 344.82C291.7 345.41 293.6 346.26 296.17 347.37C303.59 350.56 309.32 353.44 313.34 356C313.34 348.28 313.34 309.64 313.34 240.08C305.35 240.08 300.91 240.08 300.02 240.08C298.77 240.08 297.8 239.53 297.11 238.42C296.41 237.31 296.45 236.2 297.21 235.09C298.54 232.87 305.2 221.77 317.19 201.79C318.18 200.68 319.12 200.12 320 200.12Z" id="bohC3qIag"></path></defs><g><g><g><g><use xlink:href="#a7H14P1AoN" opacity="1" fill="#72c86f" fill-opacity="1"></use></g><g><use xlink:href="#bohC3qIag" opacity="1" fill="#ffffff" fill-opacity="1"></use><g><use xlink:href="#bohC3qIag" opacity="1" fill-opacity="0" stroke="#000000" stroke-width="1" stroke-opacity="0"></use></g></g></g></g></g></svg>