<?xml version="1.0" encoding="UTF-8" standalone="no"?>
<!DOCTYPE svg PUBLIC "-//W3C//DTD SVG 1.1//EN" "http://www.w3.org/Graphics/SVG/1.1/DTD/svg11.dtd">
<svg version="1.1" xmlns="http://www.w3.org/2000/svg" xmlns:xlink="http://www.w3.org/1999/xlink" preserveAspectRatio="xMidYMid meet" viewBox="0 0 640 640" width="640" height="640"><defs><path d="M473.29 372.29C473.29 366.8 468.84 362.35 463.35 362.35C458.31 362.35 418.02 362.35 412.98 362.35C407.49 362.35 403.04 366.8 403.04 372.29C403.04 373.04 403.04 376.8 403.04 383.56L359.64 383.56L332.27 325.24L485.19 325.24C485.19 339.38 485.19 347.23 485.19 348.8C485.19 352.54 487.28 355.96 490.61 357.66C493.95 359.36 497.95 359.04 500.97 356.84C506.31 352.96 549.04 321.92 554.39 318.04C556.96 316.17 558.48 313.18 558.48 310C558.48 306.82 556.96 303.83 554.39 301.96C549.04 298.08 506.31 267.04 500.97 263.16C497.95 260.96 493.94 260.64 490.61 262.34C487.28 264.04 485.19 267.46 485.19 271.2C485.19 272.77 485.19 280.62 485.19 294.76L301.4 294.76L328.77 236.44C359.44 236.44 376.48 236.44 379.89 236.44C385.67 248.95 398.32 257.65 412.98 257.65C433.08 257.65 449.43 241.3 449.43 221.2C449.43 201.1 433.08 184.75 412.98 184.75C398.32 184.75 385.67 193.46 379.89 205.96C373.81 205.96 325.17 205.96 319.09 205.96C313.18 205.96 307.8 209.38 305.29 214.73C302.78 220.06 290.26 246.74 267.72 294.76C231.91 294.76 212.02 294.76 208.04 294.76C201.43 272.19 180.55 255.64 155.87 255.64C125.9 255.64 101.52 280.03 101.52 310C101.52 339.97 125.9 364.36 155.87 364.36C180.55 364.36 201.43 347.82 208.04 325.24C214.08 325.24 244.26 325.24 298.6 325.24C321.14 373.26 333.66 399.94 336.16 405.27C338.67 410.62 344.05 414.04 349.96 414.04C353.5 414.04 371.19 414.04 403.04 414.04C403.04 420.8 403.04 424.55 403.04 425.31C403.04 430.79 407.49 435.25 412.98 435.25C418.02 435.25 458.31 435.25 463.34 435.25C468.84 435.25 473.29 430.79 473.29 425.31C473.29 414.7 473.29 377.59 473.29 372.29Z" id="b3G6fIlPuQ"></path></defs><g><g><g><use xlink:href="#b3G6fIlPuQ" opacity="1" fill="#ffffff" fill-opacity="1"></use><g><use xlink:href="#b3G6fIlPuQ" opacity="1" fill-opacity="0" stroke="#000000" stroke-width="1" stroke-opacity="0"></use></g></g></g></g></svg>